<svg width="20" height="24" viewBox="0 0 20 24" fill="none" xmlns="http://www.w3.org/2000/svg">
<mask id="path-1-inside-1_22487_15715" fill="white">
<path d="M15.1954 13.0704V13.5457C15.1897 14.9782 14.646 16.3504 13.6826 17.3635C12.7192 18.3766 11.4142 18.9486 10.0516 18.955H9.99704C8.63592 18.9462 7.33305 18.3732 6.37153 17.3603C5.41 16.3475 4.86748 14.9767 4.86183 13.5457V13.0704C4.62574 12.9457 4.42698 12.7549 4.28745 12.519C4.14792 12.2831 4.07302 12.0113 4.07103 11.7335C4.06499 11.5345 4.09708 11.3362 4.16537 11.1504C4.23367 10.9646 4.33677 10.7952 4.46857 10.6521C4.60037 10.5091 4.75818 10.3953 4.93261 10.3177C5.10705 10.24 5.29456 10.2 5.48399 10.2C5.67343 10.2 5.86094 10.24 6.03537 10.3177C6.20981 10.3953 6.36762 10.5091 6.49942 10.6521C6.63122 10.7952 6.73434 10.9646 6.80263 11.1504C6.87092 11.3362 6.90301 11.5345 6.89698 11.7335C6.89458 12.0343 6.80739 12.3276 6.64644 12.5763C6.4855 12.825 6.25803 13.0179 5.99278 13.1307V13.5457C5.99581 14.6652 6.42018 15.7379 7.17316 16.5296C7.92613 17.3212 8.94652 17.7673 10.0114 17.7705H10.0659C11.1308 17.7673 12.1512 17.3212 12.9042 16.5296C13.6571 15.7379 14.0815 14.6652 14.0845 13.5457V13.1307C13.8189 13.0184 13.591 12.8256 13.4298 12.5768C13.2685 12.328 13.1812 12.0345 13.1789 11.7335C13.1789 11.3394 13.3278 10.9613 13.593 10.6826C13.8581 10.4039 14.2177 10.2473 14.5926 10.2473C14.9675 10.2473 15.3271 10.4039 15.5922 10.6826C15.8573 10.9613 16.0063 11.3394 16.0063 11.7335C16.0041 12.0115 15.929 12.2834 15.7892 12.5193C15.6494 12.7552 15.4504 12.9459 15.214 13.0704H15.1954Z"/>
</mask>
<path d="M15.1954 13.0704V9.82038H11.9454V13.0704H15.1954ZM15.1954 13.5457L18.4454 13.5585V13.5457H15.1954ZM10.0516 18.955V22.205H10.0592L10.0667 22.2049L10.0516 18.955ZM9.99704 18.955L9.97618 22.2049L9.98661 22.205H9.99704V18.955ZM4.86183 13.5457H1.61181L1.61186 13.5585L4.86183 13.5457ZM4.86183 13.0704H8.11183V11.1116L6.37985 10.1967L4.86183 13.0704ZM4.07103 11.7335L7.32095 11.7102L7.32068 11.6726L7.31954 11.635L4.07103 11.7335ZM5.48399 10.2V13.45V10.2ZM6.89698 11.7335L3.64847 11.635L3.64737 11.6713L3.64708 11.7076L6.89698 11.7335ZM5.99278 13.1307L4.72099 10.1399L2.74278 10.9811V13.1307H5.99278ZM5.99278 13.5457H2.74277L2.7428 13.5545L5.99278 13.5457ZM10.0114 17.7705L10.0017 21.0205H10.0114V17.7705ZM10.0659 17.7705V21.0205L10.0756 21.0205L10.0659 17.7705ZM14.0845 13.5457L17.3345 13.5545V13.5457H14.0845ZM14.0845 13.1307H17.3345V10.9769L15.3509 10.1376L14.0845 13.1307ZM13.1789 11.7335H9.92889V11.7461L9.92899 11.7587L13.1789 11.7335ZM16.0063 11.7335L19.2562 11.7584L19.2563 11.746V11.7335H16.0063ZM15.214 13.0704V16.3204H16.0177L16.7287 15.9458L15.214 13.0704ZM11.9454 13.0704V13.5457H18.4454V13.0704H11.9454ZM11.9454 13.5328C11.9429 14.1589 11.704 14.728 11.3275 15.1239L16.0378 19.6031C17.5881 17.9728 18.4365 15.7976 18.4454 13.5585L11.9454 13.5328ZM11.3275 15.1239C10.9561 15.5144 10.4884 15.7029 10.0364 15.705L10.0667 22.2049C12.34 22.1943 14.4824 21.2388 16.0378 19.6031L11.3275 15.1239ZM10.0516 15.705H9.99704V22.205H10.0516V15.705ZM10.0179 15.705C9.56636 15.7021 9.09929 15.5132 8.72856 15.1227L4.01449 19.5979C5.56682 21.2331 7.70549 22.1903 9.97618 22.2049L10.0179 15.705ZM8.72856 15.1227C8.35272 14.7268 8.11428 14.1582 8.11181 13.5329L1.61186 13.5585C1.62068 15.7951 2.46727 17.9681 4.01449 19.5979L8.72856 15.1227ZM8.11183 13.5457V13.0704H1.61183V13.5457H8.11183ZM6.37985 10.1967C6.68916 10.3601 6.9271 10.5979 7.08469 10.8643L1.49021 14.1737C1.92687 14.9118 2.56233 15.5313 3.34382 15.9441L6.37985 10.1967ZM7.08469 10.8643C7.24164 11.1296 7.31888 11.4219 7.32095 11.7102L0.821114 11.7569C0.827171 12.6007 1.0542 13.4366 1.49021 14.1737L7.08469 10.8643ZM7.31954 11.635C7.32602 11.849 7.29183 12.0649 7.21578 12.2718L1.11497 10.029C0.902336 10.6074 0.803967 11.22 0.822523 11.832L7.31954 11.635ZM7.21578 12.2718C7.13967 12.4788 7.02097 12.6782 6.85873 12.8543L2.07841 8.44995C1.65257 8.91214 1.32766 9.45044 1.11497 10.029L7.21578 12.2718ZM6.85873 12.8543C6.69622 13.0307 6.4925 13.1807 6.25472 13.2866L3.61051 7.34873C3.02386 7.60997 2.50452 7.98746 2.07841 8.44995L6.85873 12.8543ZM6.25472 13.2866C6.01643 13.3927 5.7538 13.45 5.48399 13.45V6.94995C4.83531 6.94995 4.19767 7.08726 3.61051 7.34873L6.25472 13.2866ZM5.48399 13.45C5.21419 13.45 4.95156 13.3927 4.71327 13.2866L7.35748 7.34873C6.77032 7.08726 6.13268 6.94995 5.48399 6.94995V13.45ZM4.71327 13.2866C4.47549 13.1807 4.27177 13.0307 4.10925 12.8543L8.88958 8.44995C8.46347 7.98746 7.94413 7.60997 7.35748 7.34873L4.71327 13.2866ZM4.10925 12.8543C3.94714 12.6784 3.82839 12.479 3.75223 12.2718L9.85304 10.029C9.64029 9.45028 9.31531 8.91201 8.88958 8.44995L4.10925 12.8543ZM3.75223 12.2718C3.67618 12.0649 3.64198 11.8489 3.64847 11.635L10.1455 11.832C10.164 11.22 10.0657 10.6074 9.85304 10.029L3.75223 12.2718ZM3.64708 11.7076C3.64953 11.4007 3.73786 11.0889 3.91794 10.8106L9.37495 14.342C9.87691 13.5664 10.1396 12.6679 10.1469 11.7595L3.64708 11.7076ZM3.91794 10.8106C4.09902 10.5308 4.37191 10.2884 4.72099 10.1399L7.26458 16.1216C8.14415 15.7475 8.87198 15.1192 9.37495 14.342L3.91794 10.8106ZM2.74278 13.1307V13.5457H9.24278V13.1307H2.74278ZM2.7428 13.5545C2.74801 15.482 3.47725 17.3596 4.81831 18.7695L9.52801 14.2896C9.36311 14.1163 9.24362 13.8484 9.24277 13.5369L2.7428 13.5545ZM4.81831 18.7695C6.16455 20.1848 8.02437 21.0146 10.0017 21.0205L10.0211 14.5205C9.86867 14.5201 9.68772 14.4576 9.52801 14.2896L4.81831 18.7695ZM10.0114 21.0205H10.0659V14.5205H10.0114V21.0205ZM10.0756 21.0205C12.0529 21.0146 13.9128 20.1848 15.259 18.7695L10.5493 14.2896C10.3896 14.4576 10.2086 14.5201 10.0562 14.5205L10.0756 21.0205ZM15.259 18.7695C16.6001 17.3596 17.3293 15.482 17.3345 13.5545L10.8345 13.5369C10.8337 13.8484 10.7142 14.1163 10.5493 14.2896L15.259 18.7695ZM17.3345 13.5457V13.1307H10.8345V13.5457H17.3345ZM15.3509 10.1376C15.7012 10.2858 15.9752 10.5286 16.157 10.8091L10.7025 14.3445C11.2068 15.1225 11.9366 15.7509 12.8181 16.1238L15.3509 10.1376ZM16.157 10.8091C16.3378 11.088 16.4264 11.4008 16.4288 11.7084L9.92899 11.7587C9.93602 12.6683 10.1993 13.5681 10.7025 14.3445L16.157 10.8091ZM16.4289 11.7335C16.4289 12.1503 16.2729 12.5807 15.9478 12.9225L11.2381 8.4427C10.3827 9.34196 9.92889 10.5284 9.92889 11.7335H16.4289ZM15.9478 12.9225C15.6174 13.2699 15.1336 13.4973 14.5926 13.4973V6.9973C13.3018 6.9973 12.0987 7.5379 11.2381 8.4427L15.9478 12.9225ZM14.5926 13.4973C14.0516 13.4973 13.5677 13.2698 13.2374 12.9225L17.9471 8.4427C17.0865 7.53793 15.8835 6.9973 14.5926 6.9973V13.4973ZM13.2374 12.9225C12.9122 12.5807 12.7563 12.1503 12.7563 11.7335H19.2563C19.2563 10.5284 18.8024 9.34196 17.9471 8.4427L13.2374 12.9225ZM12.7564 11.7086C12.7586 11.4202 12.8361 11.1277 12.9933 10.8624L18.5852 14.1762C19.022 13.439 19.2497 12.6028 19.2562 11.7584L12.7564 11.7086ZM12.9933 10.8624C13.1512 10.5959 13.3896 10.3581 13.6993 10.1949L16.7287 15.9458C17.5112 15.5337 18.1477 14.9144 18.5852 14.1762L12.9933 10.8624ZM15.214 9.82038H15.1954V16.3204H15.214V9.82038Z" fill="#1CA4FF" mask="url(#path-1-inside-1_22487_15715)"/>
<path d="M17.9733 7.47146C17.9747 7.47578 17.9761 7.48014 17.9776 7.48453V7.49366L17.9788 7.51085L18.8287 19.8271L18.8287 19.8372C18.8287 19.8374 18.8287 19.8376 18.8287 19.8378C18.8258 20.8165 18.4544 21.7494 17.8028 22.4339C17.152 23.1176 16.2758 23.4977 15.3672 23.5C15.3669 23.5 15.3666 23.5 15.3664 23.5H4.63073C4.63053 23.5 4.63033 23.5 4.63012 23.5C3.72182 23.4971 2.84616 23.1167 2.1959 22.433C1.54484 21.7486 1.17375 20.816 1.1709 19.8378V19.827L2.01507 7.51515L2.01624 7.49807V7.48573C2.01755 7.48175 2.0188 7.47782 2.01999 7.47391C2.02729 7.45865 2.03409 7.44254 2.04023 7.4256L3.43033 4.71192C3.43039 4.71182 3.43044 4.71171 3.43049 4.71161C3.43748 4.69819 3.44606 4.69021 3.45269 4.68604C3.45902 4.68207 3.46412 4.68111 3.46767 4.68107H5.04543H5.43966H5.45049H6.09171H13.9079H14.5601L14.5589 4.67654H14.9484H16.5262C16.5297 4.67658 16.5348 4.67755 16.5411 4.68152C16.5478 4.68567 16.5563 4.69362 16.5633 4.70696C16.5634 4.7071 16.5634 4.70725 16.5635 4.70739L17.952 7.42066C17.9585 7.43856 17.9656 7.4555 17.9733 7.47146ZM14.4594 4.2806L14.4857 4.40438L14.3907 4.05122C14.1231 3.05605 13.5529 2.17517 12.7616 1.5449C11.9699 0.914272 11.0006 0.569803 10.0006 0.568277L9.99917 0.568279C8.99904 0.569523 8.02957 0.913901 7.23773 1.5446C6.44635 2.17493 5.87622 3.056 5.60883 4.05134L5.49115 4.48939L5.53454 4.28482C5.76353 3.2054 6.33429 2.2449 7.14731 1.55878C7.95955 0.873313 8.9656 0.50178 9.99961 0.500001C11.0322 0.502555 12.0367 0.873969 12.8479 1.55855C13.6598 2.24378 14.23 3.20277 14.4594 4.2806ZM2.59097 6.71593L2.22604 7.44078H3.03757H10.0184H16.9993H17.8115L17.4458 6.71561L16.6535 5.14488L16.5149 4.87005H16.2071H3.82837H3.52031L3.38178 5.14521L2.59097 6.71593Z" stroke="#1CA4FF"/>
</svg>
